<svg xmlns="http://www.w3.org/2000/svg" xmlns:xlink="http://www.w3.org/1999/xlink" contentStyleType="text/css" height="448px" preserveAspectRatio="none" style="width:571px;height:448px;background:#FFFFFF;" version="1.1" viewBox="0 0 571 448" width="571px" zoomAndPan="magnify"><defs/><g><!--cluster seneca--><g id="cluster_seneca"><path d="M8.5,6 L64.5361,6 A3.75,3.75 0 0 1 67.0361,8.5 L74.0361,28.2969 L561.5,28.2969 A2.5,2.5 0 0 1 564,30.7969 L564,438.66 A2.5,2.5 0 0 1 561.5,441.16 L8.5,441.16 A2.5,2.5 0 0 1 6,438.66 L6,8.5 A2.5,2.5 0 0 1 8.5,6 " fill="none" style="stroke:#000000;stroke-width:1.5;"/><line style="stroke:#000000;stroke-width:1.5;" x1="6" x2="74.0361" y1="28.2969" y2="28.2969"/><text fill="#000000" font-family="sans-serif" font-size="14" font-weight="bold" lengthAdjust="spacing" textLength="55.0361" x="10" y="20.9951">seneca</text></g><!--class MotorVehicle--><g id="elem_MotorVehicle"><rect codeLine="2" fill="#F1F1F1" height="162.0781" id="MotorVehicle" rx="2.5" ry="2.5" style="stroke:#181818;stroke-width:0.5;" width="343.2969" x="113.35" y="41"/><ellipse cx="234.9442" cy="57" fill="#ADD1B2" rx="11" ry="11" style="stroke:#181818;stroke-width:1;"/><path d="M237.913,62.6406 Q237.3349,62.9375 236.6942,63.0781 Q236.0536,63.2344 235.3505,63.2344 Q232.8505,63.2344 231.5224,61.5938 Q230.2099,59.9375 230.2099,56.8125 Q230.2099,53.6875 231.5224,52.0313 Q232.8505,50.375 235.3505,50.375 Q236.0536,50.375 236.6942,50.5313 Q237.3505,50.6875 237.913,50.9844 L237.913,53.7031 Q237.288,53.125 236.6942,52.8594 Q236.1005,52.5781 235.4755,52.5781 Q234.1317,52.5781 233.4442,53.6563 Q232.7567,54.7188 232.7567,56.8125 Q232.7567,58.9063 233.4442,59.9844 Q234.1317,61.0469 235.4755,61.0469 Q236.1005,61.0469 236.6942,60.7813 Q237.288,60.5 237.913,59.9219 L237.913,62.6406 Z " fill="#000000"/><text fill="#000000" font-family="sans-serif" font-size="14" lengthAdjust="spacing" textLength="91.6084" x="255.4442" y="61.8467">MotorVehicle</text><line style="stroke:#181818;stroke-width:0.5;" x1="114.35" x2="455.6469" y1="73" y2="73"/><rect fill="none" height="6" style="stroke:#C82930;stroke-width:1;" width="6" x="121.35" y="83.6484"/><text fill="#000000" font-family="sans-serif" font-size="14" lengthAdjust="spacing" textLength="139.0703" x="133.35" y="89.9951">char licensePlate[9]</text><rect fill="none" height="6" style="stroke:#C82930;stroke-width:1;" width="6" x="121.35" y="99.9453"/><text fill="#000000" font-family="sans-serif" font-size="14" lengthAdjust="spacing" textLength="119.4033" x="133.35" y="106.292">char address[64]</text><rect fill="none" height="6" style="stroke:#C82930;stroke-width:1;" width="6" x="121.35" y="116.2422"/><text fill="#000000" font-family="sans-serif" font-size="14" lengthAdjust="spacing" textLength="53.9355" x="133.35" y="122.5889">int year</text><line style="stroke:#181818;stroke-width:1;" x1="114.35" x2="455.6469" y1="129.8906" y2="129.8906"/><ellipse cx="124.35" cy="143.5391" fill="#84BE84" rx="3" ry="3" style="stroke:#038048;stroke-width:1;"/><text fill="#000000" font-family="sans-serif" font-size="14" lengthAdjust="spacing" textLength="317.2969" x="133.35" y="146.8857">MotorVehicle(const char* plate, int yearBuilt)</text><ellipse cx="124.35" cy="159.8359" fill="#84BE84" rx="3" ry="3" style="stroke:#038048;stroke-width:1;"/><text fill="#000000" font-family="sans-serif" font-size="14" lengthAdjust="spacing" textLength="271.1885" x="133.35" y="163.1826">void moveTo(const char* newAddress)</text><ellipse cx="124.35" cy="176.1328" fill="#84BE84" rx="3" ry="3" style="stroke:#038048;stroke-width:1;"/><text fill="#000000" font-family="sans-serif" font-size="14" lengthAdjust="spacing" textLength="250.9541" x="133.35" y="179.4795">ostream&amp; write(ostream&amp; os) const</text><ellipse cx="124.35" cy="192.4297" fill="#84BE84" rx="3" ry="3" style="stroke:#038048;stroke-width:1;"/><text fill="#000000" font-family="sans-serif" font-size="14" lengthAdjust="spacing" textLength="192.7734" x="133.35" y="195.7764">istream&amp; read(istream&amp; in)</text></g><!--class Truck--><g id="elem_Truck"><rect codeLine="13" fill="#F1F1F1" height="162.0781" id="Truck" rx="2.5" ry="2.5" style="stroke:#181818;stroke-width:0.5;" width="525.8369" x="22.08" y="263.08"/><ellipse cx="261.2558" cy="279.08" fill="#ADD1B2" rx="11" ry="11" style="stroke:#181818;stroke-width:1;"/><path d="M264.2245,284.7206 Q263.6464,285.0175 263.0058,285.1581 Q262.3652,285.3144 261.662,285.3144 Q259.162,285.3144 257.8339,283.6738 Q256.5214,282.0175 256.5214,278.8925 Q256.5214,275.7675 257.8339,274.1113 Q259.162,272.455 261.662,272.455 Q262.3652,272.455 263.0058,272.6113 Q263.662,272.7675 264.2245,273.0644 L264.2245,275.7831 Q263.5995,275.205 263.0058,274.9394 Q262.412,274.6581 261.787,274.6581 Q260.4433,274.6581 259.7558,275.7363 Q259.0683,276.7988 259.0683,278.8925 Q259.0683,280.9863 259.7558,282.0644 Q260.4433,283.1269 261.787,283.1269 Q262.412,283.1269 263.0058,282.8613 Q263.5995,282.58 264.2245,282.0019 L264.2245,284.7206 Z " fill="#000000"/><text fill="#000000" font-family="sans-serif" font-size="14" lengthAdjust="spacing" textLength="38.9854" x="281.7558" y="283.9267">Truck</text><line style="stroke:#181818;stroke-width:0.5;" x1="23.08" x2="546.9169" y1="295.08" y2="295.08"/><rect fill="none" height="6" style="stroke:#C82930;stroke-width:1;" width="6" x="30.08" y="305.7284"/><text fill="#000000" font-family="sans-serif" font-size="14" lengthAdjust="spacing" textLength="111.2686" x="42.08" y="312.0751">double capacity</text><rect fill="none" height="6" style="stroke:#C82930;stroke-width:1;" width="6" x="30.08" y="322.0253"/><text fill="#000000" font-family="sans-serif" font-size="14" lengthAdjust="spacing" textLength="91.6494" x="42.08" y="328.372">double cargo</text><line style="stroke:#181818;stroke-width:1;" x1="23.08" x2="546.9169" y1="335.6738" y2="335.6738"/><ellipse cx="33.08" cy="349.3222" fill="#84BE84" rx="3" ry="3" style="stroke:#038048;stroke-width:1;"/><text fill="#000000" font-family="sans-serif" font-size="14" lengthAdjust="spacing" textLength="499.8369" x="42.08" y="352.6689">Truck(const char* plate, int yearBuilt, double cap, const char* address)</text><ellipse cx="33.08" cy="365.6191" fill="#84BE84" rx="3" ry="3" style="stroke:#038048;stroke-width:1;"/><text fill="#000000" font-family="sans-serif" font-size="14" lengthAdjust="spacing" textLength="254.4404" x="42.08" y="368.9657">bool addCargo(double cargoWeight)</text><ellipse cx="33.08" cy="381.9159" fill="#84BE84" rx="3" ry="3" style="stroke:#038048;stroke-width:1;"/><text fill="#000000" font-family="sans-serif" font-size="14" lengthAdjust="spacing" textLength="134.5107" x="42.08" y="385.2626">bool unloadCargo()</text><ellipse cx="33.08" cy="398.2128" fill="#84BE84" rx="3" ry="3" style="stroke:#038048;stroke-width:1;"/><text fill="#000000" font-family="sans-serif" font-size="14" lengthAdjust="spacing" textLength="250.9541" x="42.08" y="401.5595">ostream&amp; write(ostream&amp; os) const</text><ellipse cx="33.08" cy="414.5097" fill="#84BE84" rx="3" ry="3" style="stroke:#038048;stroke-width:1;"/><text fill="#000000" font-family="sans-serif" font-size="14" lengthAdjust="spacing" textLength="192.7734" x="42.08" y="417.8564">istream&amp; read(istream&amp; in)</text></g><!--reverse link MotorVehicle to Truck--><g id="link_MotorVehicle_Truck"><path codeLine="24" d="M285,221.43 C285,240.71 285,243.3 285,262.58 " fill="none" id="MotorVehicle-backto-Truck" style="stroke:#181818;stroke-width:1;"/><polygon fill="none" points="285,203.43,279,221.43,291,221.43,285,203.43" style="stroke:#181818;stroke-width:1;"/></g><!--SRC=[jL8zJyCm4DtpAsv2AIGRGa9Y0MOaXgeTAeQhVMfEEBxAvxIgeF-TV9JWq4fCUB1yzzwxZoTxh4ctQ0YKF1c4ZmpQOnogmej42Gkgs3Ww0TqfmLGOmB4Xh_JgCDBg_kqtZDO6KbtTtQOG-mW7ml2JAiVdpQHXRiHhx6jTmxPhKepgfuPTd2N2dR25MdOqbudEq_vnc2DbYyP0M5_1Fd2aV0n5Pz2h4ov_W-rjyp5YFnGyPebVyz2OzubHLffrwvt1rcAEXqj8sCXbC_fgVxfG93qAIDbullXQn7Nvvwvhdewm9DvKyOpRU2Tuel-lWvE_zl1PbiF-sV4B]--></g></svg>