<svg xmlns="http://www.w3.org/2000/svg" xmlns:xlink="http://www.w3.org/1999/xlink" contentStyleType="text/css" height="567px" preserveAspectRatio="none" style="width:866px;height:567px;background:#FFFFFF;" version="1.1" viewBox="0 0 866 567" width="866px" zoomAndPan="magnify"><defs/><g><line style="stroke:#181818;stroke-width:0.5;stroke-dasharray:5.0,5.0;" x1="23" x2="23" y1="81.2969" y2="486.7578"/><line style="stroke:#181818;stroke-width:0.5;stroke-dasharray:5.0,5.0;" x1="179.3203" x2="179.3203" y1="81.2969" y2="486.7578"/><line style="stroke:#181818;stroke-width:0.5;stroke-dasharray:5.0,5.0;" x1="515.4746" x2="515.4746" y1="81.2969" y2="486.7578"/><line style="stroke:#181818;stroke-width:0.5;stroke-dasharray:5.0,5.0;" x1="806.647" x2="806.647" y1="81.2969" y2="486.7578"/><text fill="#000000" font-family="sans-serif" font-size="14" lengthAdjust="spacing" textLength="31.9102" x="5" y="77.9951">User</text><ellipse cx="23.9551" cy="13.5" fill="#E2E2F0" rx="8" ry="8" style="stroke:#181818;stroke-width:0.5;"/><path d="M23.9551,21.5 L23.9551,48.5 M10.9551,29.5 L36.9551,29.5 M23.9551,48.5 L10.9551,63.5 M23.9551,48.5 L36.9551,63.5 " fill="none" style="stroke:#181818;stroke-width:0.5;"/><text fill="#000000" font-family="sans-serif" font-size="14" lengthAdjust="spacing" textLength="31.9102" x="5" y="498.7529">User</text><ellipse cx="23.9551" cy="510.5547" fill="#E2E2F0" rx="8" ry="8" style="stroke:#181818;stroke-width:0.5;"/><path d="M23.9551,518.5547 L23.9551,545.5547 M10.9551,526.5547 L36.9551,526.5547 M23.9551,545.5547 L10.9551,560.5547 M23.9551,545.5547 L36.9551,560.5547 " fill="none" style="stroke:#181818;stroke-width:0.5;"/><rect fill="#E2E2F0" height="30.2969" rx="2.5" ry="2.5" style="stroke:#181818;stroke-width:0.5;" width="59.9033" x="150.3203" y="50"/><text fill="#000000" font-family="sans-serif" font-size="14" lengthAdjust="spacing" textLength="45.9033" x="157.3203" y="69.9951">main()</text><rect fill="#E2E2F0" height="30.2969" rx="2.5" ry="2.5" style="stroke:#181818;stroke-width:0.5;" width="59.9033" x="150.3203" y="485.7578"/><text fill="#000000" font-family="sans-serif" font-size="14" lengthAdjust="spacing" textLength="45.9033" x="157.3203" y="505.7529">main()</text><rect fill="#E2E2F0" height="30.2969" rx="2.5" ry="2.5" style="stroke:#181818;stroke-width:0.5;" width="52.9854" x="489.4746" y="50"/><text fill="#000000" font-family="sans-serif" font-size="14" lengthAdjust="spacing" textLength="38.9854" x="496.4746" y="69.9951">Truck</text><rect fill="#E2E2F0" height="30.2969" rx="2.5" ry="2.5" style="stroke:#181818;stroke-width:0.5;" width="52.9854" x="489.4746" y="485.7578"/><text fill="#000000" font-family="sans-serif" font-size="14" lengthAdjust="spacing" textLength="38.9854" x="496.4746" y="505.7529">Truck</text><rect fill="#E2E2F0" height="30.2969" rx="2.5" ry="2.5" style="stroke:#181818;stroke-width:0.5;" width="105.6084" x="754.647" y="50"/><text fill="#000000" font-family="sans-serif" font-size="14" lengthAdjust="spacing" textLength="91.6084" x="761.647" y="69.9951">MotorVehicle</text><rect fill="#E2E2F0" height="30.2969" rx="2.5" ry="2.5" style="stroke:#181818;stroke-width:0.5;" width="105.6084" x="754.647" y="485.7578"/><text fill="#000000" font-family="sans-serif" font-size="14" lengthAdjust="spacing" textLength="91.6084" x="761.647" y="505.7529">MotorVehicle</text><polygon fill="#181818" points="168.272,108.4297,178.272,112.4297,168.272,116.4297,172.272,112.4297" style="stroke:#181818;stroke-width:1;"/><line style="stroke:#181818;stroke-width:1;" x1="23.9551" x2="174.272" y1="112.4297" y2="112.4297"/><text fill="#000000" font-family="sans-serif" font-size="13" lengthAdjust="spacing" textLength="132.3169" x="30.9551" y="107.3638">Executa o programa</text><polygon fill="#181818" points="503.9673,137.5625,513.9673,141.5625,503.9673,145.5625,507.9673,141.5625" style="stroke:#181818;stroke-width:1;"/><line style="stroke:#181818;stroke-width:1;" x1="180.272" x2="509.9673" y1="141.5625" y2="141.5625"/><text fill="#000000" font-family="sans-serif" font-size="13" lengthAdjust="spacing" textLength="311.6953" x="187.272" y="136.4966">Cria Truck("T-1111", 2015, 5432, "Toronto HQ")</text><polygon fill="#181818" points="795.4512,166.6953,805.4512,170.6953,795.4512,174.6953,799.4512,170.6953" style="stroke:#181818;stroke-width:1;"/><line style="stroke:#181818;stroke-width:1;" x1="515.9673" x2="801.4512" y1="170.6953" y2="170.6953"/><text fill="#000000" font-family="sans-serif" font-size="13" lengthAdjust="spacing" textLength="267.4839" x="522.9673" y="165.6294">Construtor MotorVehicle("T-1111", 2015)</text><polygon fill="#181818" points="526.9673,195.8281,516.9673,199.8281,526.9673,203.8281,522.9673,199.8281" style="stroke:#181818;stroke-width:1;"/><line style="stroke:#181818;stroke-width:1;stroke-dasharray:2.0,2.0;" x1="520.9673" x2="806.4512" y1="199.8281" y2="199.8281"/><text fill="#000000" font-family="sans-serif" font-size="13" lengthAdjust="spacing" textLength="170.5488" x="532.9673" y="194.7622">Inst&#226;ncia base inicializada</text><line style="stroke:#181818;stroke-width:1;" x1="515.9673" x2="557.9673" y1="228.9609" y2="228.9609"/><line style="stroke:#181818;stroke-width:1;" x1="557.9673" x2="557.9673" y1="228.9609" y2="241.9609"/><line style="stroke:#181818;stroke-width:1;" x1="516.9673" x2="557.9673" y1="241.9609" y2="241.9609"/><polygon fill="#181818" points="526.9673,237.9609,516.9673,241.9609,526.9673,245.9609,522.9673,241.9609" style="stroke:#181818;stroke-width:1;"/><text fill="#000000" font-family="sans-serif" font-size="13" lengthAdjust="spacing" textLength="148.9287" x="522.9673" y="223.895">moveTo("Toronto HQ")</text><polygon fill="#181818" points="503.9673,267.0938,513.9673,271.0938,503.9673,275.0938,507.9673,271.0938" style="stroke:#181818;stroke-width:1;"/><line style="stroke:#181818;stroke-width:1;" x1="180.272" x2="509.9673" y1="271.0938" y2="271.0938"/><text fill="#000000" font-family="sans-serif" font-size="13" lengthAdjust="spacing" textLength="260.8696" x="187.272" y="266.0278">moveAndLoad("Toronto Deposit", 2345)</text><line style="stroke:#181818;stroke-width:1;" x1="515.9673" x2="557.9673" y1="300.2266" y2="300.2266"/><line style="stroke:#181818;stroke-width:1;" x1="557.9673" x2="557.9673" y1="300.2266" y2="313.2266"/><line style="stroke:#181818;stroke-width:1;" x1="516.9673" x2="557.9673" y1="313.2266" y2="313.2266"/><polygon fill="#181818" points="526.9673,309.2266,516.9673,313.2266,526.9673,317.2266,522.9673,313.2266" style="stroke:#181818;stroke-width:1;"/><text fill="#000000" font-family="sans-serif" font-size="13" lengthAdjust="spacing" textLength="178.6167" x="522.9673" y="295.1606">moveTo("Toronto Deposit")</text><line style="stroke:#181818;stroke-width:1;" x1="515.9673" x2="557.9673" y1="342.3594" y2="342.3594"/><line style="stroke:#181818;stroke-width:1;" x1="557.9673" x2="557.9673" y1="342.3594" y2="355.3594"/><line style="stroke:#181818;stroke-width:1;" x1="516.9673" x2="557.9673" y1="355.3594" y2="355.3594"/><polygon fill="#181818" points="526.9673,351.3594,516.9673,355.3594,526.9673,359.3594,522.9673,355.3594" style="stroke:#181818;stroke-width:1;"/><text fill="#000000" font-family="sans-serif" font-size="13" lengthAdjust="spacing" textLength="106.2915" x="522.9673" y="337.2935">addCargo(2345)</text><polygon fill="#181818" points="503.9673,380.4922,513.9673,384.4922,503.9673,388.4922,507.9673,384.4922" style="stroke:#181818;stroke-width:1;"/><line style="stroke:#181818;stroke-width:1;" x1="180.272" x2="509.9673" y1="384.4922" y2="384.4922"/><text fill="#000000" font-family="sans-serif" font-size="13" lengthAdjust="spacing" textLength="201.4619" x="187.272" y="379.4263">moveAndUnload("New Jersey")</text><line style="stroke:#181818;stroke-width:1;" x1="515.9673" x2="557.9673" y1="413.625" y2="413.625"/><line style="stroke:#181818;stroke-width:1;" x1="557.9673" x2="557.9673" y1="413.625" y2="426.625"/><line style="stroke:#181818;stroke-width:1;" x1="516.9673" x2="557.9673" y1="426.625" y2="426.625"/><polygon fill="#181818" points="526.9673,422.625,516.9673,426.625,526.9673,430.625,522.9673,426.625" style="stroke:#181818;stroke-width:1;"/><text fill="#000000" font-family="sans-serif" font-size="13" lengthAdjust="spacing" textLength="146.4341" x="522.9673" y="408.5591">moveTo("New Jersey")</text><line style="stroke:#181818;stroke-width:1;" x1="515.9673" x2="557.9673" y1="455.7578" y2="455.7578"/><line style="stroke:#181818;stroke-width:1;" x1="557.9673" x2="557.9673" y1="455.7578" y2="468.7578"/><line style="stroke:#181818;stroke-width:1;" x1="516.9673" x2="557.9673" y1="468.7578" y2="468.7578"/><polygon fill="#181818" points="526.9673,464.7578,516.9673,468.7578,526.9673,472.7578,522.9673,468.7578" style="stroke:#181818;stroke-width:1;"/><text fill="#000000" font-family="sans-serif" font-size="13" lengthAdjust="spacing" textLength="92.9995" x="522.9673" y="450.6919">unloadCargo()</text><!--SRC=[XO_RIiGm48RlynH3hbheWdlepLu8iWeghY1qlH_Ji0RRJ9cadXx7L_75J5EbxSfghuREd-_x1vKdXftJB1faRvHfq7hOeh603cGTXYILasN1hNgAspXDbriAm7lzQ5IbOsRyGmhHgM1s6Wrhk7ZLglK810tJdh564TKX4DbhsB31VavaCPk7JsQmE9dd6UIhvI8B9OZ9UeBBEvcAlbl77sa3XQppt7QtZXS7o5HCsi-65bVX-UU7LQ7B0peDnePxiJBlMEBW_0xNzAmBIgR53k_gGcUsl24iX-IvRiWPtzLPhlBqN_9F_dSIotA3lAUa1nsnxsmL_RVw1QurE_qcZql_3BMHr2lJBm00]--></g></svg>